<?xml version="1.0" encoding="UTF-8"?>
<!DOCTYPE svg PUBLIC "-//W3C//DTD SVG 1.1//EN" "http://www.w3.org/Graphics/SVG/1.1/DTD/svg11.dtd">
<svg xmlns="http://www.w3.org/2000/svg" version="1.1" width="332px" height="842px" style="shape-rendering:geometricPrecision; text-rendering:geometricPrecision; image-rendering:optimizeQuality; fill-rule:evenodd; clip-rule:evenodd" xmlns:xlink="http://www.w3.org/1999/xlink">
<g><path style="opacity:0.944" fill="#9e7db8" d="M 159.5,-0.5 C 163.5,-0.5 167.5,-0.5 171.5,-0.5C 183.273,5.8928 186.106,15.2261 180,27.5C 170.333,36.8333 160.667,36.8333 151,27.5C 144.894,15.2261 147.727,5.8928 159.5,-0.5 Z"/></g>
<g><path style="opacity:0.952" fill="#8b246c" d="M 307.5,-0.5 C 311.833,-0.5 316.167,-0.5 320.5,-0.5C 325.983,2.31451 329.649,6.64785 331.5,12.5C 331.5,15.1667 331.5,17.8333 331.5,20.5C 325.645,33.9555 315.978,37.4555 302.5,31C 295.983,23.6749 294.816,15.5082 299,6.5C 301.441,3.54644 304.275,1.21311 307.5,-0.5 Z"/></g>
<g><path style="opacity:0.946" fill="#8b246c" d="M -0.5,94.5 C -0.5,91.5 -0.5,88.5 -0.5,85.5C 3.5812,75.1203 11.2479,70.9537 22.5,73C 33.095,77.3581 36.9283,85.1914 34,96.5C 27.893,107.535 19.0597,110.368 7.5,105C 3.85255,102.194 1.18588,98.6937 -0.5,94.5 Z"/></g>
<g><path style="opacity:0.944" fill="#9e7db8" d="M 87.5,145.5 C 100.57,144.575 107.903,150.575 109.5,163.5C 106.811,177.513 98.4774,183.013 84.5,180C 73.271,173.303 70.771,164.136 77,152.5C 79.9978,149.262 83.4978,146.929 87.5,145.5 Z"/></g>
<g><path style="opacity:0.952" fill="#3a6090" d="M 331.5,159.5 C 331.5,162.167 331.5,164.833 331.5,167.5C 325.924,180.726 316.591,184.226 303.5,178C 295.55,170.125 294.383,161.292 300,151.5C 307.519,144.623 315.685,143.79 324.5,149C 327.738,151.998 330.071,155.498 331.5,159.5 Z"/></g>
<g><path style="opacity:0.95" fill="#3a6090" d="M -0.5,241.5 C -0.5,238.5 -0.5,235.5 -0.5,232.5C 5.10159,219.278 14.4349,215.778 27.5,222C 35.4503,229.875 36.6169,238.708 31,248.5C 23.4812,255.377 15.3146,256.21 6.5,251C 3.1151,248.471 0.78177,245.304 -0.5,241.5 Z"/></g>
<g><path style="opacity:0.95" fill="#8b246c" d="M 160.5,292.5 C 177.426,291.92 184.593,299.92 182,316.5C 176.677,326.723 168.51,329.889 157.5,326C 145.043,316.458 144.376,306.124 155.5,295C 157.315,294.243 158.981,293.41 160.5,292.5 Z"/></g>
<g><path style="opacity:0.948" fill="#dd8b6f" d="M 234.5,292.5 C 247.844,291.023 255.511,296.856 257.5,310C 254.888,324.979 246.221,330.312 231.5,326C 219.125,316.447 218.458,306.113 229.5,295C 231.315,294.243 232.981,293.41 234.5,292.5 Z"/></g>
<g><path style="opacity:0.95" fill="#9e7db8" d="M -0.5,387.5 C -0.5,384.5 -0.5,381.5 -0.5,378.5C 7.28899,364.297 17.789,361.964 31,371.5C 38.7437,387.344 34.077,397.344 17,401.5C 8.1041,400.49 2.27077,395.823 -0.5,387.5 Z"/></g>
<g><path style="opacity:0.946" fill="#9e7db8" d="M 235.5,365.5 C 250.646,365.146 257.813,372.479 257,387.5C 253.018,398.832 245.185,402.998 233.5,400C 223.44,395.169 219.94,387.336 223,376.5C 225.505,370.822 229.671,367.155 235.5,365.5 Z"/></g>
<g><path style="opacity:0.951" fill="#3a6090" d="M 331.5,379.5 C 331.5,382.167 331.5,384.833 331.5,387.5C 325.924,400.726 316.591,404.226 303.5,398C 295.55,390.125 294.383,381.292 300,371.5C 307.519,364.623 315.685,363.79 324.5,369C 327.754,372.043 330.087,375.543 331.5,379.5 Z"/></g>
<g><path style="opacity:0.95" fill="#9e7db8" d="M -0.5,461.5 C -0.5,458.5 -0.5,455.5 -0.5,452.5C 5.0761,439.274 14.4094,435.774 27.5,442C 35.4503,449.875 36.6169,458.708 31,468.5C 17.789,478.036 7.28899,475.703 -0.5,461.5 Z"/></g>
<g><path style="opacity:0.948" fill="#dd8b6f" d="M 90.5,438.5 C 105.165,440.663 110.998,448.996 108,463.5C 101.303,474.729 92.1363,477.229 80.5,471C 70.6819,460.232 71.3486,450.232 82.5,441C 85.3102,440.218 87.9768,439.384 90.5,438.5 Z"/></g>
<g><path style="opacity:0.942" fill="#dd8b6f" d="M 164.5,438.5 C 181.726,441.616 186.893,451.283 180,467.5C 172.425,475.26 163.925,476.426 154.5,471C 144.742,460.239 145.409,450.239 156.5,441C 159.31,440.218 161.977,439.384 164.5,438.5 Z"/></g>
<g><path style="opacity:0.95" fill="#9e7db8" d="M 86.5,512.5 C 103.424,511.918 110.59,519.918 108,536.5C 102.677,546.723 94.5103,549.889 83.5,546C 74.4874,540.47 71.654,532.637 75,522.5C 77.8178,517.839 81.6511,514.505 86.5,512.5 Z"/></g>
<g><path style="opacity:0.948" fill="#8b246c" d="M 234.5,512.5 C 247.844,511.023 255.511,516.856 257.5,530C 254.888,544.979 246.221,550.312 231.5,546C 219.125,536.447 218.458,526.113 229.5,515C 231.315,514.243 232.981,513.41 234.5,512.5 Z"/></g>
<g><path style="opacity:0.948" fill="#8b246c" d="M 87.5,585.5 C 100.57,584.575 107.903,590.575 109.5,603.5C 108.158,614.175 102.158,620.175 91.5,621.5C 74.9647,617.763 70.1313,608.096 77,592.5C 79.9978,589.262 83.4978,586.929 87.5,585.5 Z"/></g>
<g><path style="opacity:0.947" fill="#dd8b6f" d="M 235.5,585.5 C 252.473,585.633 259.307,593.966 256,610.5C 252.534,617.119 247.034,620.786 239.5,621.5C 225.328,618.836 219.828,610.503 223,596.5C 225.505,590.822 229.671,587.155 235.5,585.5 Z"/></g>
<g><path style="opacity:0.951" fill="#3a6090" d="M 331.5,599.5 C 331.5,602.167 331.5,604.833 331.5,607.5C 325.924,620.726 316.591,624.226 303.5,618C 295.55,610.125 294.383,601.292 300,591.5C 307.519,584.623 315.685,583.79 324.5,589C 327.754,592.043 330.087,595.543 331.5,599.5 Z"/></g>
<g><path style="opacity:0.949" fill="#3a6090" d="M -0.5,681.5 C -0.5,678.5 -0.5,675.5 -0.5,672.5C 5.0761,659.274 14.4094,655.774 27.5,662C 35.4503,669.875 36.6169,678.708 31,688.5C 17.789,698.036 7.28899,695.703 -0.5,681.5 Z"/></g>
<g><path style="opacity:0.946" fill="#8b246c" d="M -0.5,754.5 C -0.5,751.5 -0.5,748.5 -0.5,745.5C 5.15791,732.855 14.4912,729.355 27.5,735C 35.021,742.343 36.521,750.843 32,760.5C 23.2572,768.991 13.9239,769.658 4,762.5C 2.20496,759.901 0.704964,757.234 -0.5,754.5 Z"/></g>
<g><path style="opacity:0.95" fill="#9e7db8" d="M 160.5,732.5 C 177.426,731.92 184.593,739.92 182,756.5C 176.677,766.723 168.51,769.889 157.5,766C 145.043,756.458 144.376,746.124 155.5,735C 157.315,734.243 158.981,733.41 160.5,732.5 Z"/></g>
<g><path style="opacity:0.95" fill="#9e7db8" d="M 18.5,841.5 C 17.8333,841.5 17.1667,841.5 16.5,841.5C 7.95357,840.386 2.2869,835.719 -0.5,827.5C -0.5,824.5 -0.5,821.5 -0.5,818.5C 3.62796,808.93 10.9613,804.764 21.5,806C 32.8033,809.847 36.97,817.68 34,829.5C 30.9404,836.411 25.7738,840.411 18.5,841.5 Z"/></g>
<g><path style="opacity:0.942" fill="#dd8b6f" d="M 166.5,841.5 C 165.833,841.5 165.167,841.5 164.5,841.5C 148.755,837.335 144.255,827.669 151,812.5C 158.575,804.74 167.075,803.574 176.5,809C 186.258,819.761 185.591,829.761 174.5,839C 171.69,839.782 169.023,840.616 166.5,841.5 Z"/></g>
</svg>
