<?xml version="1.0" encoding="UTF-8"?>
<!DOCTYPE svg PUBLIC "-//W3C//DTD SVG 1.1//EN" "http://www.w3.org/Graphics/SVG/1.1/DTD/svg11.dtd">
<svg xmlns="http://www.w3.org/2000/svg" version="1.1" width="843px" height="200px" style="shape-rendering:geometricPrecision; text-rendering:geometricPrecision; image-rendering:optimizeQuality; fill-rule:evenodd; clip-rule:evenodd" xmlns:xlink="http://www.w3.org/1999/xlink">
<g><path style="opacity:0.95" fill="#26215a" d="M 268.5,-0.5 C 269.5,-0.5 270.5,-0.5 271.5,-0.5C 277.311,8.37082 278.811,18.0375 276,28.5C 227.397,76.4255 185.563,129.592 150.5,188C 146.276,189.45 143.776,187.95 143,183.5C 141.616,177.891 141.283,172.225 142,166.5C 149.814,151.854 158.647,137.854 168.5,124.5C 143.43,123.533 118.764,126.366 94.5,133C 78.0989,155.007 62.0989,177.173 46.5,199.5C 45.8333,199.5 45.1667,199.5 44.5,199.5C 36.8352,195.165 33.6685,188.498 35,179.5C 42.7211,166.571 51.5544,154.405 61.5,143C 41.2877,148.633 21.9543,156.633 3.5,167C 2.07153,167.579 0.738195,167.412 -0.5,166.5C -0.5,163.5 -0.5,160.5 -0.5,157.5C 2.04414,147.115 8.37747,139.948 18.5,136C 38.7036,128.449 59.3702,122.449 80.5,118C 93.8924,102.279 106.892,86.2788 119.5,70C 116.333,64.173 117.166,59.0063 122,54.5C 136.044,39.9544 150.544,25.9544 165.5,12.5C 169.435,13.2679 171.935,15.6012 173,19.5C 173.311,21.556 173.811,23.556 174.5,25.5C 173.811,27.444 173.311,29.444 173,31.5C 151.713,58.5761 130.546,85.7428 109.5,113C 123.717,111.399 138.051,110.232 152.5,109.5C 160.925,110.147 169.258,110.981 177.5,112C 201.763,77.6566 227.596,44.4899 255,12.5C 259.395,7.93568 263.895,3.60235 268.5,-0.5 Z"/></g>
<g><path style="opacity:0.942" fill="#26215a" d="M 626.5,-0.5 C 628.833,-0.5 631.167,-0.5 633.5,-0.5C 651.979,-0.677143 667.146,6.32286 679,20.5C 686.955,35.9846 683.789,48.8179 669.5,59C 657.324,67.9269 644.324,75.5935 630.5,82C 646.544,85.5425 655.878,95.3758 658.5,111.5C 657.873,118.883 655.373,125.549 651,131.5C 638.984,144.924 625.151,156.09 609.5,165C 581.232,181.149 550.899,190.649 518.5,193.5C 494.995,193.084 476.662,183.251 463.5,164C 455.945,163.277 451.945,159.111 451.5,151.5C 452.296,147.521 452.963,143.521 453.5,139.5C 452.525,133.518 452.358,127.518 453,121.5C 455.885,119.115 458.885,119.115 462,121.5C 467.419,112.993 473.086,104.66 479,96.5C 479.688,95.6683 479.521,95.0016 478.5,94.5C 470.548,100.95 463.048,107.95 456,115.5C 443.483,131.01 430.65,146.177 417.5,161C 412.063,162.655 407.897,161.155 405,156.5C 404.333,155.167 404.333,153.833 405,152.5C 407.07,147.057 409.07,141.724 411,136.5C 400.782,145.363 389.615,152.863 377.5,159C 355.552,165.942 342.385,158.109 338,135.5C 329.422,144.083 320.255,151.916 310.5,159C 304.329,164.139 298.829,163.639 294,157.5C 289.295,147.94 287.629,137.94 289,127.5C 275.555,139.943 260.721,150.443 244.5,159C 227.515,165.563 215.015,160.73 207,144.5C 204.016,133.888 205.35,123.888 211,114.5C 226.457,91.3762 245.624,71.8762 268.5,56C 284.971,47.4051 295.304,52.0717 299.5,70C 298.725,77.7129 295.892,84.5462 291,90.5C 282.045,101.792 271.545,111.292 259.5,119C 249.914,124.176 240.914,123.343 232.5,116.5C 225.611,124.264 222.111,133.264 222,143.5C 225.415,146.948 229.249,147.448 233.5,145C 256.631,136.175 277.465,123.675 296,107.5C 311.291,77.5724 328.958,49.2391 349,22.5C 354.468,16.0311 360.301,9.86442 366.5,4C 372.981,-0.684688 379.148,-0.184688 385,5.5C 392.699,15.2348 394.366,25.9015 390,37.5C 384.573,44.9305 378.407,51.7638 371.5,58C 353.622,72.8801 335.455,87.3801 317,101.5C 309.768,112.854 304.268,125.02 300.5,138C 300.725,139.621 301.558,140.788 303,141.5C 318.59,133.952 332.756,124.286 345.5,112.5C 360.645,90.188 379.312,71.3547 401.5,56C 415.882,47.7926 426.049,51.2926 432,66.5C 432.538,75.553 429.871,83.553 424,90.5C 413.301,104.245 400.134,114.745 384.5,122C 377.365,122.899 371.031,121.066 365.5,116.5C 358.611,124.264 355.111,133.264 355,143.5C 356.552,144.966 358.386,145.966 360.5,146.5C 385.806,138.267 408.306,125.267 428,107.5C 439.261,86.9168 452.095,67.4168 466.5,49C 472.828,47.1251 478.328,48.6251 483,53.5C 483.667,54.8333 483.667,56.1667 483,57.5C 470.621,71.1683 459.954,85.835 451,101.5C 461.435,89.0625 472.602,77.2292 484.5,66C 488.156,62.8372 492.156,60.1705 496.5,58C 505.481,56.6259 510.981,60.4592 513,69.5C 513.888,74.6178 513.555,79.6178 512,84.5C 496.628,101.583 482.962,119.917 471,139.5C 469.921,142.063 469.421,144.729 469.5,147.5C 473.856,146.489 477.856,144.656 481.5,142C 491.124,134.711 500.458,127.045 509.5,119C 511.234,114.93 513.4,111.097 516,107.5C 526.867,94.9655 538.701,83.4655 551.5,73C 546.893,73.7174 542.226,74.0508 537.5,74C 528.269,66.2108 522.935,56.2108 521.5,44C 522.608,39.8786 524.941,36.5453 528.5,34C 558.255,14.0274 590.921,2.52736 626.5,-0.5 Z M 631.5,17.5 C 641.233,17.1091 650.9,17.6091 660.5,19C 668.481,21.131 670.981,25.9644 668,33.5C 658.994,41.5026 649.161,48.336 638.5,54C 619.411,63.8782 600.077,73.2115 580.5,82C 575.515,87.7407 574.348,94.2407 577,101.5C 578.013,103.846 579.679,105.513 582,106.5C 595.225,99.5354 609.225,95.2021 624,93.5C 641.747,95.9152 645.413,104.582 635,119.5C 606.806,147.684 572.973,165.517 533.5,173C 516.62,176.199 500.287,174.532 484.5,168C 481.537,166.039 478.871,163.706 476.5,161C 491.008,151.167 504.342,139.834 516.5,127C 519.833,126.667 523.167,126.333 526.5,126C 534.708,114.119 544.041,103.119 554.5,93C 571,77.8418 588.5,64.0085 607,51.5C 609.416,46.8271 608.249,43.3271 603.5,41C 601.256,40.0943 598.923,39.5943 596.5,39.5C 578.281,46.1069 559.947,52.4402 541.5,58.5C 537.927,58.5731 536.76,56.9065 538,53.5C 543.723,47.1121 550.557,42.2788 558.5,39C 582.077,28.8591 606.41,21.6925 631.5,17.5 Z M 334.5,74.5 C 345.778,57.04 358.444,40.54 372.5,25C 375,23.1667 377.5,21.3333 380,19.5C 381.44,20.9304 381.774,22.597 381,24.5C 367.103,42.5673 351.603,59.234 334.5,74.5 Z M 277.5,71.5 C 278.5,71.5 279.5,71.5 280.5,71.5C 280.66,73.1992 280.494,74.8659 280,76.5C 272.449,89.718 261.949,99.8847 248.5,107C 245.262,108.368 241.928,108.701 238.5,108C 249.483,93.5118 262.483,81.3452 277.5,71.5 Z M 410.5,71.5 C 411.5,71.5 412.5,71.5 413.5,71.5C 413.66,73.1992 413.494,74.8659 413,76.5C 406.593,87.5752 398.093,96.7419 387.5,104C 382.641,107.401 377.308,108.734 371.5,108C 382.483,93.5118 395.483,81.3452 410.5,71.5 Z"/></g>
<g><path style="opacity:0.95" fill="#8b246c" d="M 767.5,15.5 C 775.833,15.5 784.167,15.5 792.5,15.5C 792.666,23.84 792.5,32.1733 792,40.5C 784,41.8333 776,41.8333 768,40.5C 767.5,32.1733 767.334,23.84 767.5,15.5 Z"/></g>
<g><path style="opacity:0.927" fill="#1f9bc9" d="M 842.5,16.5 C 842.5,24.5 842.5,32.5 842.5,40.5C 834.548,41.6032 826.548,41.7698 818.5,41C 817.204,37.0913 816.537,32.9246 816.5,28.5C 816.515,24.2515 816.848,20.0848 817.5,16C 825.912,15.199 834.245,15.3656 842.5,16.5 Z"/></g>
<g><path style="opacity:0.953" fill="#f58f4b" d="M 743.5,64.5 C 743.5,65.1667 743.167,65.5 742.5,65.5C 734.472,65.831 726.472,65.4977 718.5,64.5C 717.179,56.6366 717.179,48.8033 718.5,41C 726.827,40.5003 735.16,40.3336 743.5,40.5C 743.5,48.5 743.5,56.5 743.5,64.5 Z"/></g>
<g><path style="opacity:0.927" fill="#7d2a73" d="M 743.5,64.5 C 751.507,64.3336 759.507,64.5003 767.5,65C 768.833,73.3333 768.833,81.6667 767.5,90C 759.507,90.4997 751.507,90.6664 743.5,90.5C 743.5,89.8333 743.167,89.5 742.5,89.5C 742.5,81.5 742.5,73.5 742.5,65.5C 743.167,65.5 743.5,65.1667 743.5,64.5 Z"/></g>
<g><path style="opacity:0.924" fill="#c976af" d="M 842.5,65.5 C 842.5,73.5 842.5,81.5 842.5,89.5C 834.245,90.6344 825.912,90.801 817.5,90C 816.167,81.6667 816.167,73.3333 817.5,65C 825.912,64.199 834.245,64.3656 842.5,65.5 Z"/></g>
<g><path style="opacity:0.929" fill="#9e7cb7" d="M 742.5,89.5 C 743.167,89.5 743.5,89.8333 743.5,90.5C 743.666,98.5069 743.5,106.507 743,114.5C 735.246,115.647 727.413,115.814 719.5,115C 719,114.5 718.5,114 718,113.5C 717.2,105.784 717.367,98.1171 718.5,90.5C 726.472,89.5023 734.472,89.169 742.5,89.5 Z"/></g>
<g><path style="opacity:0.978" fill="#269ac7" d="M 792.5,114.5 C 792.5,122.833 792.5,131.167 792.5,139.5C 784.167,139.5 775.833,139.5 767.5,139.5C 767.5,131.167 767.5,122.833 767.5,114.5C 775.833,114.5 784.167,114.5 792.5,114.5 Z"/></g>
<g><path style="opacity:0.978" fill="#f5904a" d="M 792.5,114.5 C 800.833,114.5 809.167,114.5 817.5,114.5C 817.5,122.833 817.5,131.167 817.5,139.5C 809.167,139.5 800.833,139.5 792.5,139.5C 792.5,131.167 792.5,122.833 792.5,114.5 Z"/></g>
</svg>
