<?xml version="1.0" encoding="UTF-8"?> <svg xmlns="http://www.w3.org/2000/svg" width="118" height="130" viewBox="0 0 118 130" fill="none"><path fill-rule="evenodd" clip-rule="evenodd" d="M93.4272 7.29662C93.3699 3.21662 90.1112 0.121954 85.8699 0.12062C81.7885 0.119287 78.5592 3.23529 78.6165 7.12195C78.6752 11.0753 82.1325 14.3566 86.2312 14.3486C90.3152 14.3406 93.4819 11.2366 93.4272 7.29662ZM63.5553 45.7629C63.5299 50.6389 61.0713 53.6322 57.6153 54.2749C53.8046 54.9829 50.2086 53.1629 48.9113 49.4149C48.1931 47.3397 47.7807 45.1558 47.3691 42.9764L47.3691 42.9764C47.2412 42.2992 47.1135 41.6225 46.9766 40.9496C46.8062 40.1121 46.6353 39.2747 46.4645 38.4373L46.4643 38.4365L46.4643 38.4362C45.355 32.9985 44.2457 27.5609 43.2406 22.1042C42.4019 17.5536 44.6673 13.9416 48.7899 12.8882C52.4019 11.9642 56.6993 13.9696 57.6606 17.9416C59.3367 24.8756 60.7447 31.8742 62.0594 38.4088L62.0594 38.4091L62.0596 38.41L62.0597 38.4103L62.06 38.4117L62.0608 38.4157L62.061 38.4167C62.5697 40.9451 63.0644 43.404 63.5553 45.7629ZM75.1994 45.5591L75.3134 45.5631L75.4142 45.5667C80.9214 45.7731 86.1836 44.841 91.3814 43.9202C93.7743 43.4964 96.1536 43.0749 98.5368 42.7681C101.405 42.3987 104.298 41.9867 107.08 41.2281C110.341 40.3401 112.202 37.9307 112.181 34.5414C112.161 31.0841 110.024 28.9521 106.83 28.0414C105.358 27.6214 103.705 27.4841 102.182 27.6521C93.5235 28.6107 84.8702 29.6294 76.2368 30.7947C74.1208 31.0801 71.5915 31.4441 70.1502 32.7561C68.4728 34.2827 66.7515 36.9947 66.9515 39.0027C67.1542 41.0347 69.4542 43.1067 71.2782 44.6307C72.266 45.4579 74.0135 45.5182 75.1994 45.5591ZM55.707 81.8849C57.3817 82.7582 59.2203 83.4609 60.4763 83.6236C64.427 84.1369 67.1963 82.1862 68.3123 78.8756C69.4697 75.4502 68.1537 72.7262 65.3537 70.6449C64.6763 70.1422 63.939 69.7089 63.1923 69.3142C61.6884 68.5202 60.1847 67.726 58.6809 66.9317C49.2736 61.963 39.8665 56.9944 30.4297 52.0822C28.951 51.3129 27.2977 50.6316 25.667 50.4569C22.227 50.0876 19.483 51.5022 17.9737 54.7142C16.6257 57.5836 17.687 60.8809 20.5163 63.0596C21.2777 63.6462 22.127 64.1356 22.979 64.5876C24.5649 65.4294 26.1507 66.2716 27.7364 67.1138C37.0485 72.0593 46.3612 77.0052 55.707 81.8849ZM40.5646 83.2557C39.4539 81.0051 36.7379 79.2464 35.4059 78.7544C29.0379 76.4011 25.1086 83.2277 26.7726 88.1437C27.7172 90.9345 28.9788 93.623 30.238 96.3063L30.238 96.3065C30.573 97.0204 30.9079 97.734 31.2366 98.4491C32.0594 100.238 32.8793 102.029 33.6992 103.82C36.8557 110.714 40.0126 117.609 43.3392 124.42C45.3926 128.625 49.5846 130.068 53.3699 128.433C57.2286 126.765 58.9366 123.024 57.0526 118.781C51.7552 106.848 46.3392 94.9611 40.5646 83.2557ZM99.1972 65.9904C99.1596 66.1577 99.1205 66.3685 99.0758 66.6094C98.9554 67.2575 98.7945 68.1239 98.5145 68.9491C98.0865 70.212 97.6588 71.475 97.2311 72.738C94.2091 81.6611 91.1872 90.5844 88.0639 99.4718C86.4159 104.158 82.5866 106.556 78.7239 105.66C74.6359 104.712 71.9119 100.914 73.1959 96.9198C76.8159 85.6491 80.6519 74.4438 84.6639 63.3064C86.0652 59.4198 89.7439 57.7251 93.4052 58.4664C96.7946 59.1531 99.1572 61.9864 99.1972 65.9904ZM68.158 98.3621C68.1273 101.891 64.6713 105.053 60.91 104.993C57.0967 104.933 53.8727 101.758 53.926 98.1141C53.9793 94.4515 57.2753 91.4461 61.138 91.5341C65.0353 91.6235 68.19 94.6928 68.158 98.3621ZM15.1849 79.4475C15.1782 75.8222 11.9236 72.8755 7.96623 72.9115C3.98489 72.9475 0.866227 75.8982 0.902227 79.5942C0.936893 83.2169 4.25289 86.2862 8.07156 86.2302C11.8276 86.1742 15.1916 82.9675 15.1849 79.4475ZM31.8761 43.4353C27.8108 43.4033 24.7801 40.4633 24.8881 36.6539C24.9868 33.1446 28.1561 30.1913 31.8961 30.1246C35.6441 30.0579 39.1121 33.3046 39.0894 36.8606C39.0654 40.6286 35.9508 43.4673 31.8761 43.4353ZM103.583 62.3421C103.64 65.9834 106.88 68.9007 110.829 68.8674C114.799 68.8341 118.012 65.8221 117.924 62.2207C117.837 58.6821 114.412 55.5314 110.689 55.5661C106.959 55.6021 103.529 58.8727 103.583 62.3421Z" fill="#212121"></path></svg> 