<?xml version="1.0" encoding="UTF-8"?> <svg xmlns="http://www.w3.org/2000/svg" width="114" height="143" viewBox="0 0 114 143" fill="none"><path fill-rule="evenodd" clip-rule="evenodd" d="M85.6613 6.69906C84.876 2.77772 81.6466 0.663059 78.0213 0.733726C73.524 0.821726 70.3786 4.33506 71.0186 8.98839C71.9313 15.6121 73.048 22.2089 74.1641 28.8029L74.3867 30.1177C74.584 31.2844 75.06 32.4617 75.6546 33.4911C77.44 36.5804 81.132 38.0324 84.3867 37.0177C87.844 35.9377 89.864 33.3831 89.44 29.9484C88.4786 22.1591 87.2026 14.3951 85.6613 6.69906ZM113.396 54.7727C113.487 58.9554 111.339 61.994 107.526 62.7074C103.696 63.4234 100.003 61.574 98.9844 57.7474C98.1271 54.526 97.7951 51.0847 97.7737 47.7367C97.7302 41.2948 97.9926 34.849 98.2548 28.4082L98.2644 28.174C98.4617 23.3234 100.275 20.602 103.642 19.65C108.812 18.186 113.312 21.706 113.559 27.6207C113.653 29.8942 113.568 36.2082 113.486 42.3005C113.416 47.5059 113.348 52.5494 113.396 54.7727ZM39.5136 98.9949C36.4829 98.8269 33.4336 96.7975 32.8976 93.2349C31.7029 85.2909 30.8549 77.2415 30.6882 69.2189C30.5962 64.8055 34.0629 62.3069 38.0456 62.3429C41.9402 62.3775 45.0976 65.4095 45.5536 69.7829C46.3029 76.9682 46.9656 84.1642 47.6069 91.3615C47.9922 95.6829 44.7549 99.0282 39.5136 98.9949ZM47.9018 42.4734C47.7325 46.652 44.7218 49.7067 40.8845 49.864C36.8858 50.028 33.3098 47.104 33.0578 42.8547C32.6272 35.6187 32.4218 28.36 32.4072 21.1107C32.3992 16.6574 35.4712 13.62 39.5205 13.432C43.6618 13.24 47.1245 16.2147 47.4605 20.72C47.7378 24.4467 48.0432 38.9734 47.9018 42.4734ZM7.63565 29.7388C3.59565 30.0202 0.734313 33.0455 0.562313 37.5122C0.474313 39.7935 0.952979 48.5148 1.24231 50.5255C1.27921 50.781 1.31584 51.037 1.35252 51.2933C1.81024 54.4918 2.27523 57.7411 3.35165 60.7482C4.68765 64.4788 8.55698 66.1802 12.1943 65.3722C15.4863 64.6402 17.7223 62.1042 17.5063 58.5735C17.0596 51.2335 16.4783 43.8935 15.6463 36.5882C15.1623 32.3455 11.4703 29.4735 7.63565 29.7388ZM78.3721 104.412C78.4894 110.736 75.9654 114.002 71.8294 114.406C67.6414 114.815 64.1534 112.246 63.4587 107.598C62.5481 101.504 61.9067 95.3564 61.4907 89.2098C61.1974 84.8631 63.9241 81.7658 67.8081 81.2711C71.7814 80.7658 75.5654 83.2951 76.2614 87.5298C76.9784 91.9005 77.4645 96.3091 77.8902 100.17L77.8903 100.171C78.0567 101.68 78.2139 103.106 78.3721 104.412ZM5.90623 77.1728C2.47956 79.0648 1.82889 82.3128 1.39689 85.9448C1.72752 87.7141 2.02862 89.4915 2.32972 91.2689L2.32976 91.2692C3.03405 95.4266 3.73839 99.5844 4.82089 103.641C5.92756 107.787 10.2356 109.747 13.9956 108.695C17.9316 107.594 19.7436 104.189 19.0769 99.6128C18.7967 97.6832 18.5847 95.7417 18.3728 93.8009L18.3727 93.8007L18.3727 93.8006L18.3727 93.8006L18.3727 93.8005C18.0351 90.7084 17.6976 87.6182 17.0849 84.5808C16.5982 82.1635 15.3476 79.5688 13.6556 77.8101C11.6076 75.6808 8.60223 75.6848 5.90623 77.1728ZM69.6807 55.0613C69.5047 59.44 66.854 62.3347 62.9127 62.6333C58.9727 62.932 55.4727 60.5227 54.8674 56.3733C54.5219 54.0044 54.6044 51.5716 54.6868 49.141V49.141V49.1409V49.1408C54.7193 48.1856 54.7517 47.2306 54.758 46.28C54.7617 45.7137 54.7619 45.1469 54.762 44.5799C54.7624 42.4849 54.7629 40.3878 54.9434 38.308C55.2994 34.2 58.5127 31.2933 62.3927 31.3187C66.2847 31.3427 69.4887 34.272 69.7807 38.3867C69.986 41.2733 69.7874 52.4067 69.6807 55.0613ZM45.9829 142.072C49.7269 140.783 51.3362 137.446 50.4896 132.956C49.8869 129.758 49.3122 121.576 49.3109 120.728C49.3016 116.107 46.7949 112.924 42.8082 112.474C38.5776 111.996 35.1549 114.48 34.3002 119.075C33.1202 125.42 34.0562 131.658 36.4202 137.583C38.0149 141.578 42.2922 143.343 45.9829 142.072ZM105.328 114.277C105.381 118.909 103.396 121.733 100.151 122.661C96.6907 123.652 92.3894 122.274 91.4267 118.718C89.7107 112.376 88.5694 105.809 87.9587 99.2637C87.6294 95.7317 91.0054 93.1717 94.6134 92.8864C98.1467 92.6064 101.547 94.753 102.431 98.5517C103.345 102.477 104.009 106.461 104.614 110.091L104.614 110.092C104.857 111.553 105.091 112.957 105.328 114.277ZM92.2898 73.2272C92.2439 72.7121 92.1999 72.2179 92.1623 71.753C92.1623 71.0895 92.1821 70.4604 92.2011 69.8564C92.2407 68.5985 92.2768 67.4497 92.1236 66.3264C91.6543 62.901 88.8703 60.401 85.5077 60.113C82.0676 59.8184 78.581 61.7224 77.7383 64.8531C76.3263 70.1064 76.3837 75.4517 78.3743 80.5597C79.7743 84.1477 83.7317 85.8757 87.3677 84.9264C90.789 84.0317 92.7823 81.1237 92.589 77.197C92.5221 75.8316 92.4006 74.4687 92.2898 73.2272Z" fill="white"></path></svg> 